<svg width="66" height="49" viewBox="0 0 66 49" fill="none" xmlns="http://www.w3.org/2000/svg">
<g id="Badge" filter="url(#filter0_dd_127_282)">
<rect x="9.45715" y="5" width="46.6143" height="30.0304" rx="5.37857" fill="white"/>
<rect x="9.3451" y="4.88795" width="46.8384" height="30.2545" rx="5.49062" stroke="#D6DCE5" stroke-width="0.224107"/>
<g id="G Pay">
<path d="M31.751 23.6141H30.7026V15.4558H33.482C34.1865 15.4558 34.7871 15.6906 35.2786 16.1602C35.781 16.6299 36.0322 17.2032 36.0322 17.8803C36.0322 18.5739 35.781 19.1472 35.2786 19.6114C34.7926 20.0755 34.1919 20.3049 33.482 20.3049H31.751V23.6141ZM31.751 16.4606V19.3056H33.5039C33.9189 19.3056 34.2684 19.1636 34.5414 18.8851C34.8199 18.6066 34.9619 18.2681 34.9619 17.8858C34.9619 17.509 34.8199 17.1759 34.5414 16.8974C34.2684 16.608 33.9244 16.466 33.5039 16.466H31.751V16.4606Z" fill="#3C4043"/>
<path d="M38.7733 17.8476C39.5487 17.8476 40.1603 18.0551 40.6081 18.4701C41.0559 18.8851 41.2797 19.453 41.2797 20.1738V23.6141H40.2804V22.8386H40.2368C39.8054 23.4775 39.2265 23.7943 38.5057 23.7943C37.8887 23.7943 37.3754 23.6141 36.9604 23.2482C36.5454 22.8823 36.3379 22.4291 36.3379 21.883C36.3379 21.3042 36.5563 20.8455 36.9931 20.5069C37.43 20.1629 38.0143 19.9936 38.7405 19.9936C39.3631 19.9936 39.8764 20.1083 40.275 20.3377V20.0974C40.275 19.7315 40.133 19.4257 39.8436 19.1691C39.5542 18.9124 39.2156 18.7868 38.8279 18.7868C38.2436 18.7868 37.7795 19.0325 37.4409 19.5295L36.5181 18.9506C37.0259 18.2134 37.7795 17.8476 38.7733 17.8476ZM37.4191 21.8994C37.4191 22.1724 37.5337 22.4018 37.7685 22.582C37.9979 22.7622 38.2709 22.855 38.5822 22.855C39.0245 22.855 39.4177 22.6912 39.7617 22.3636C40.1057 22.0359 40.2804 21.6537 40.2804 21.2114C39.9528 20.9547 39.4996 20.8237 38.9153 20.8237C38.4894 20.8237 38.1344 20.9274 37.8505 21.1294C37.561 21.3424 37.4191 21.5991 37.4191 21.8994Z" fill="#3C4043"/>
<path d="M46.9807 18.0278L43.4859 26.066H42.4047L43.7043 23.2537L41.3999 18.0278H42.5412L44.2012 22.036H44.2231L45.8394 18.0278H46.9807Z" fill="#3C4043"/>
<path d="M27.5807 19.6441C27.5807 19.3023 27.5501 18.9752 27.4933 18.6607H23.0986V20.4627L25.6296 20.4633C25.5269 21.0628 25.1965 21.574 24.6903 21.9147V23.0838H26.1969C27.0766 22.2696 27.5807 21.0661 27.5807 19.6441Z" fill="#4285F4"/>
<path d="M24.6909 21.9148C24.2715 22.1976 23.7314 22.3631 23.0996 22.3631C21.8792 22.3631 20.8438 21.5407 20.4731 20.4322H18.919V21.6379C19.6889 23.1658 21.2714 24.2142 23.0996 24.2142C24.3632 24.2142 25.4248 23.7987 26.1975 23.0833L24.6909 21.9148Z" fill="#34A853"/>
<path d="M20.3267 19.5377C20.3267 19.2264 20.3785 18.9255 20.473 18.6427V17.4369H18.9189C18.6006 18.0687 18.4214 18.7819 18.4214 19.5377C18.4214 20.2934 18.6011 21.0066 18.9189 21.6384L20.473 20.4327C20.3785 20.1498 20.3267 19.8489 20.3267 19.5377Z" fill="#FABB05"/>
<path d="M23.0996 16.7118C23.7893 16.7118 24.4069 16.9493 24.8945 17.4135L26.2297 16.0794C25.4188 15.3242 24.3616 14.8606 23.0996 14.8606C21.272 14.8606 19.6889 15.909 18.9189 17.4369L20.473 18.6427C20.8438 17.5341 21.8792 16.7118 23.0996 16.7118Z" fill="#E94235"/>
</g>
</g>
<defs>
<filter id="filter0_dd_127_282" x="0.268746" y="0.293736" width="64.9911" height="48.4071" filterUnits="userSpaceOnUse" color-interpolation-filters="sRGB">
<feFlood flood-opacity="0" result="BackgroundImageFix"/>
<feColorMatrix in="SourceAlpha" type="matrix" values="0 0 0 0 0 0 0 0 0 0 0 0 0 0 0 0 0 0 127 0" result="hardAlpha"/>
<feOffset dy="0.448214"/>
<feGaussianBlur stdDeviation="2.24107"/>
<feColorMatrix type="matrix" values="0 0 0 0 0.717647 0 0 0 0 0.717647 0 0 0 0 0.717647 0 0 0 0.08 0"/>
<feBlend mode="normal" in2="BackgroundImageFix" result="effect1_dropShadow_127_282"/>
<feColorMatrix in="SourceAlpha" type="matrix" values="0 0 0 0 0 0 0 0 0 0 0 0 0 0 0 0 0 0 127 0" result="hardAlpha"/>
<feOffset dy="4.48214"/>
<feGaussianBlur stdDeviation="4.48214"/>
<feColorMatrix type="matrix" values="0 0 0 0 0.717647 0 0 0 0 0.717647 0 0 0 0 0.717647 0 0 0 0.08 0"/>
<feBlend mode="normal" in2="effect1_dropShadow_127_282" result="effect2_dropShadow_127_282"/>
<feBlend mode="normal" in="SourceGraphic" in2="effect2_dropShadow_127_282" result="shape"/>
</filter>
</defs>
</svg>
