<svg width="66" height="49" viewBox="0 0 66 49" fill="none" xmlns="http://www.w3.org/2000/svg">
<g id="Badge" filter="url(#filter0_dd_127_280)">
<rect x="9.84283" y="5" width="46.6143" height="30.0304" rx="5.37857" fill="white"/>
<rect x="9.73078" y="4.88795" width="46.8384" height="30.2545" rx="5.49062" stroke="#D6DCE5" stroke-width="0.224107"/>
<g id="&#239;&#163;&#191; Pay">
<path d="M24.9198 16.0815C25.2308 15.6925 25.4419 15.1702 25.3862 14.6365C24.931 14.6591 24.3754 14.9368 24.0538 15.3261C23.765 15.6595 23.5094 16.2036 23.576 16.715C24.0871 16.7593 24.5976 16.4595 24.9198 16.0815Z" fill="#000008"/>
<path d="M25.3804 16.8148C24.6383 16.7706 24.0073 17.236 23.6528 17.236C23.2982 17.236 22.7555 16.8371 22.1685 16.8479C21.4045 16.8591 20.6956 17.2911 20.3079 17.9781C19.5104 19.3526 20.0974 21.3914 20.8729 22.5108C21.2495 23.0646 21.7033 23.6744 22.3014 23.6525C22.8664 23.6303 23.0879 23.2866 23.7747 23.2866C24.461 23.2866 24.6605 23.6525 25.2586 23.6414C25.8789 23.6303 26.2666 23.0873 26.6432 22.533C27.0752 21.9016 27.2521 21.292 27.2632 21.2586C27.2521 21.2475 26.0672 20.7929 26.0562 19.4299C26.045 18.2886 26.9865 17.7458 27.0308 17.7121C26.4991 16.9258 25.6684 16.8371 25.3804 16.8148Z" fill="#000008"/>
<path d="M31.8425 15.2703C33.4555 15.2703 34.5788 16.3822 34.5788 18.001C34.5788 19.6256 33.4324 20.7433 31.802 20.7433H30.0161V23.5835H28.7257V15.2703L31.8425 15.2703ZM30.0161 19.6602H31.4967C32.6201 19.6602 33.2595 19.0553 33.2595 18.0068C33.2595 16.9583 32.6201 16.3592 31.5024 16.3592H30.0161V19.6602Z" fill="#000008"/>
<path d="M34.9159 21.861C34.9159 20.8008 35.7282 20.1499 37.1686 20.0692L38.8276 19.9713V19.5047C38.8276 18.8306 38.3725 18.4274 37.6122 18.4274C36.8919 18.4274 36.4425 18.773 36.3331 19.3146H35.1579C35.227 18.2199 36.1602 17.4134 37.6582 17.4134C39.1272 17.4134 40.0662 18.1911 40.0662 19.4067V23.5835H38.8736V22.5868H38.845C38.4936 23.2609 37.7273 23.6871 36.9323 23.6871C35.7455 23.6871 34.9159 22.9497 34.9159 21.861ZM38.8276 21.3137V20.8355L37.3355 20.9276C36.5923 20.9795 36.1718 21.3079 36.1718 21.8264C36.1718 22.3563 36.6096 22.702 37.2779 22.702C38.1478 22.702 38.8276 22.1029 38.8276 21.3137Z" fill="#000008"/>
<path d="M41.1921 25.813V24.8048C41.2841 24.8278 41.4915 24.8278 41.5952 24.8278C42.1713 24.8278 42.4824 24.5859 42.6725 23.9637C42.6725 23.9522 42.782 23.595 42.782 23.5892L40.5929 17.5228H41.9408L43.4734 22.4543H43.4963L45.0289 17.5228H46.3424L44.0724 23.9003C43.5541 25.3694 42.9549 25.8418 41.699 25.8418C41.5952 25.8418 41.2841 25.8303 41.1921 25.813Z" fill="#000008"/>
</g>
</g>
<defs>
<filter id="filter0_dd_127_280" x="0.654428" y="0.293736" width="64.9911" height="48.4071" filterUnits="userSpaceOnUse" color-interpolation-filters="sRGB">
<feFlood flood-opacity="0" result="BackgroundImageFix"/>
<feColorMatrix in="SourceAlpha" type="matrix" values="0 0 0 0 0 0 0 0 0 0 0 0 0 0 0 0 0 0 127 0" result="hardAlpha"/>
<feOffset dy="0.448214"/>
<feGaussianBlur stdDeviation="2.24107"/>
<feColorMatrix type="matrix" values="0 0 0 0 0.717647 0 0 0 0 0.717647 0 0 0 0 0.717647 0 0 0 0.08 0"/>
<feBlend mode="normal" in2="BackgroundImageFix" result="effect1_dropShadow_127_280"/>
<feColorMatrix in="SourceAlpha" type="matrix" values="0 0 0 0 0 0 0 0 0 0 0 0 0 0 0 0 0 0 127 0" result="hardAlpha"/>
<feOffset dy="4.48214"/>
<feGaussianBlur stdDeviation="4.48214"/>
<feColorMatrix type="matrix" values="0 0 0 0 0.717647 0 0 0 0 0.717647 0 0 0 0 0.717647 0 0 0 0.08 0"/>
<feBlend mode="normal" in2="effect1_dropShadow_127_280" result="effect2_dropShadow_127_280"/>
<feBlend mode="normal" in="SourceGraphic" in2="effect2_dropShadow_127_280" result="shape"/>
</filter>
</defs>
</svg>
